<?xml version="1.0" encoding="utf-8"?>
<svg version="1.1" id="m" xmlns="http://www.w3.org/2000/svg"  width="100" height="100" viewBox="0 0 1920 1080" preserveAspectRatio = "minXminY slice">
<g>
	<path d="M808.8,545c-5.2-97.7-11.4-215.2-10.4-302.6h-3.1c-23.9,82.1-53,169.5-88.4,266.2l-123.7,340h-68.6L401.2,514.9
		c-33.3-98.8-61.3-189.2-81.1-272.4h-2.1c-2.1,87.3-7.3,204.8-13.5,309.8l-18.7,300.5h-86.3L248.4,152h115.4l119.6,338.9
		c29.1,86.3,53,163.2,70.7,236h3.1c17.7-70.7,42.6-147.6,73.8-236L755.8,152h115.4l43.7,700.8h-88.4L808.8,545z"/>
</g>
</svg>
